# xmcd CD database file
#
# Track frame offsets:
#	150
#	15791
#	34688
#	50212
#	78288
#	93597
#	110020
#	130539
#	150059
#	168160
#	183524
#	198441
#	223959
#	237480
#	253008
#
# Disc length: 3675 seconds
#
# Revision: 0
# Processed by: cddbd v1.5.2PL0 Copyright (c) Steve Scherf et al.
# Submitted via: CDex 1.70beta2
#
DISCID=bf0e590f
DTITLE=Pufferbilly - Laid Out
DYEAR=2006
DGENRE=Country
TTITLE0=Laid Out
TTITLE1=Game Show
TTITLE2=Holdin' On
TTITLE3=Change
TTITLE4=Happy
TTITLE5=Sweet Love
TTITLE6=Dreamer
TTITLE7=Morrison
TTITLE8=Funk Groove
TTITLE9=Butter
TTITLE10=Fishin'
TTITLE11=War
TTITLE12=Trouble
TTITLE13=Gotta Get Up
TTITLE14=Juarez
EXTD=YEAR: 2006
EXTT0=
EXTT1=
EXTT2=
EXTT3=
EXTT4=
EXTT5=
EXTT6=
EXTT7=
EXTT8=
EXTT9=
EXTT10=
EXTT11=
EXTT12=
EXTT13=
EXTT14=
PLAYORDER=
